<svg id="Слой_1" data-name="Слой 1" xmlns="http://www.w3.org/2000/svg" viewBox="0 0 100 100"><defs><style>.cls-1{fill:#273d3c;}.cls-2{fill:#1d1d1b;}.cls-3{fill:none;stroke:#273d3c;stroke-miterlimit:10;stroke-width:0.72px;}</style></defs><path class="cls-1" d="M17.47,43.85c.41-.25.65-.52.94-.66a4.07,4.07,0,0,0,.93-.47c.62-.41,1.26-.89,1.9-1.33L23.14,40a5.11,5.11,0,0,0,1.68-1.55h0a0,0,0,0,1,0,0,5.09,5.09,0,0,1-1.52,1.77l-1.74,1.56c-.59.52-1.14,1-1.76,1.56a3.74,3.74,0,0,1-1.07.67,1.62,1.62,0,0,1-1.29-.18s0,0,0,0Z"/><path class="cls-1" d="M17.71,64.57a4,4,0,0,0-.29,2.65,5.41,5.41,0,0,0,1.17,2.19,3.41,3.41,0,0,0,2.34,1,4.23,4.23,0,0,0,2.45-.61,6.36,6.36,0,0,0,2.87-4.07,20.58,20.58,0,0,0,.42-5.49c0-3.82-.29-7.62-.57-11.43-.15-1.9-.35-3.79-.53-5.69l-.33-2.85-.18-1.42-.1-.71-.05-.35,0-.18c.05-.07-.3-.07.69-.29h0c1-.11.69,0,.75.06l0,.17.06.36.13.71.25,1.43.46,2.86c.29,1.91.5,3.83.67,5.75.39,3.85.48,7.72.49,11.58a21.79,21.79,0,0,1-.57,5.95A8.64,8.64,0,0,1,26.48,69,6.66,6.66,0,0,1,24,71a5.81,5.81,0,0,1-3.13.43A6.36,6.36,0,0,1,18,70.13,3.24,3.24,0,0,1,16.9,68.9a4.18,4.18,0,0,1-.36-1.58,3.52,3.52,0,0,1,1.14-2.77h0S17.72,64.57,17.71,64.57Z"/><path class="cls-2" d="M34.76,62.12c.05,0,.1.06.15,0s.07-.1.1-.16a.44.44,0,0,1,.28-.16,1.17,1.17,0,0,0-.07-.25.38.38,0,0,0-.16-.19.49.49,0,0,0-.41,0,1.48,1.48,0,0,0-.29.12s-.06,0,0,.08a.75.75,0,0,0,.06.13A1.12,1.12,0,0,0,34.76,62.12Z"/><path class="cls-3" d="M34.76,62.12c.05,0,.1.06.15,0s.07-.1.1-.16a.44.44,0,0,1,.28-.16,1.17,1.17,0,0,0-.07-.25.38.38,0,0,0-.16-.19.49.49,0,0,0-.41,0,1.48,1.48,0,0,0-.29.12s-.06,0,0,.08a.75.75,0,0,0,.06.13A1.12,1.12,0,0,0,34.76,62.12Z"/><path class="cls-1" d="M38.48,62.17c-.21-6.34-.2-12.68-.09-19,.06-3.17.07-6.35.41-9.51a48.18,48.18,0,0,1,1.75-9.4,0,0,0,0,1,0,0s0,0,0,0a76,76,0,0,1,.21,9.53c-.07,3.15-.38,6.29-.54,9.45-.34,6.3-.43,12.62-.49,18.94a.64.64,0,0,1-.64.64A.65.65,0,0,1,38.48,62.17Z"/><path class="cls-1" d="M41.55,24.32a77.47,77.47,0,0,0-.32,12.19,47.73,47.73,0,0,0,.62,6,15,15,0,0,0,2,5.49,5.69,5.69,0,0,0,1.83,2c.68.37,1.23.13,1.73-.64A14.28,14.28,0,0,0,49,43.76c.1-1,.22-2,.23-3s-.11-2-.1-3.06a19.29,19.29,0,0,1,1-6.15s0,0,0,0,0,0,0,0a27.77,27.77,0,0,1,.61,6.19c0,1-.22,2.06-.34,3.09s-.14,2.07-.25,3.11a15.27,15.27,0,0,1-1.69,6.2,3.11,3.11,0,0,1-1.44,1.29,2.47,2.47,0,0,1-2-.14,4.61,4.61,0,0,1-1.4-1.12,10.45,10.45,0,0,1-1-1.3,16.63,16.63,0,0,1-2.32-6,47.81,47.81,0,0,1-.73-6.23,85.08,85.08,0,0,1,0-12.47,1,1,0,1,1,2,.15Z"/><path class="cls-1" d="M51.35,31.42a19.12,19.12,0,0,1-.69,5.45,40.49,40.49,0,0,0-.69,5,28.16,28.16,0,0,0,.06,5c.08.83.26,1.67.38,2.5.06.41.11.82.19,1.21a2.19,2.19,0,0,0,.48,1.11,0,0,0,0,1,0,0h0A1.64,1.64,0,0,1,49.79,51a4.57,4.57,0,0,1-.7-1.25,17.9,17.9,0,0,1-.73-2.6,25.62,25.62,0,0,1-.52-5.38,32,32,0,0,1,.5-5.36,23.73,23.73,0,0,0,.72-4.86v0a1.15,1.15,0,0,1,2.29-.14Z"/><path class="cls-1" d="M58.51,42.92a6.93,6.93,0,0,0-1-1,1.3,1.3,0,0,0-.9-.28.62.62,0,0,0-.51.27,4,4,0,0,0-.53,1c-.65,1.72-1.72,3.53-1,4.66a1,1,0,0,0,.65.5,1.55,1.55,0,0,0,.92-.16,4.24,4.24,0,0,0,1.52-1.82,8.26,8.26,0,0,0,.86-5v0L60,41a15.74,15.74,0,0,1,.25,2.56c0,.85,0,1.73-.07,2.55a5.83,5.83,0,0,0,.21,2.24A2.34,2.34,0,0,0,62,49.9s0,0,0,0,0,0,0,0a2.49,2.49,0,0,1-2.52-1,5.43,5.43,0,0,1-.94-2.71,25.28,25.28,0,0,1-.15-2.58A14.74,14.74,0,0,1,58.59,41l0-.19a.69.69,0,0,1,.8-.56.7.7,0,0,1,.57.65v0a10.28,10.28,0,0,1-1.11,5.8,5.7,5.7,0,0,1-2,2.38,2.78,2.78,0,0,1-1.79.32,2.38,2.38,0,0,1-1.56-1.07A3.34,3.34,0,0,1,53,46.69a5,5,0,0,1,.25-1.59c.31-1,.66-1.79,1-2.67A5.58,5.58,0,0,1,55,41a2,2,0,0,1,1.92-.79,2.14,2.14,0,0,1,1.39,1.2,4.12,4.12,0,0,1,.29,1.51,0,0,0,0,1,0,0Z"/><path class="cls-1" d="M64.71,24.27a50.94,50.94,0,0,0,0,10.18l.55,5.14a18.27,18.27,0,0,1,0,5.32,0,0,0,0,1,0,0h0a16.16,16.16,0,0,1-1.92-5,38.35,38.35,0,0,1-.88-5.25A32.75,32.75,0,0,1,62.82,24a1,1,0,0,1,1.89.31Z"/><path class="cls-1" d="M59.29,38.09a.89.89,0,0,1,.52-.86,2.7,2.7,0,0,1,.63-.24l1-.37c.64-.28,1.31-.7,2-1.07l1.89-1.08,1.88-1.13h0A2.89,2.89,0,0,1,66,35.51a11.39,11.39,0,0,1-2,1.25c-.68.35-1.3.71-2,1.1L61,38.48l-.43.16c-.1.06-.08,0-.3-.11l-.84-.32A.17.17,0,0,1,59.29,38.09Z"/><path class="cls-1" d="M69,34.66l1.53,7.27-1.88.29h0a17,17,0,0,1,2.9-10.58l0,0A.79.79,0,0,1,73,32.1h0l-.09,2.66c0,.87-.09,1.8-.06,2.59,0,1.58,1.21,2.77,2.13,1.91a5.84,5.84,0,0,0,1.3-1.89A13.63,13.63,0,0,0,77.16,35,33.89,33.89,0,0,0,78,29.87h0l1.45.15A9.42,9.42,0,0,0,79.56,34a2.71,2.71,0,0,0,2.43,2c1-.05,1.89-1.12,2.48-2.31a12.65,12.65,0,0,0,1.26-3.84,8.52,8.52,0,0,0,.12-1,2.29,2.29,0,0,0,0-.42c0-.09-.05-.17,0-.12a.34.34,0,0,0,.19.13.35.35,0,0,0,.23,0c.08-.05,0,0-.12.13a3.77,3.77,0,0,0-.5.73,4.5,4.5,0,0,0-.18,3.62,5.9,5.9,0,0,0,2.58,3,9.16,9.16,0,0,0,4,1.17,0,0,0,0,1,0,0l0,0a8.37,8.37,0,0,1-4.37-.51,6.75,6.75,0,0,1-3.44-3.13A5.11,5.11,0,0,1,83.67,31a5.33,5.33,0,0,1,.61-2.43,4.6,4.6,0,0,1,.72-1,1.87,1.87,0,0,1,.71-.55,1.15,1.15,0,0,1,.76,0,1.17,1.17,0,0,1,.62.44,1.83,1.83,0,0,1,.3.89,4.3,4.3,0,0,1,0,.66c0,.38-.08.75-.14,1.13A14.4,14.4,0,0,1,85.8,34.3a7.76,7.76,0,0,1-1.36,1.94,3.68,3.68,0,0,1-2.35,1.16,3.58,3.58,0,0,1-2.5-.89,4.66,4.66,0,0,1-1.41-2.08A10.65,10.65,0,0,1,78,29.86a.73.73,0,0,1,1.45.15h0a36.08,36.08,0,0,1-.83,5.36A15,15,0,0,1,77.66,38,7,7,0,0,1,76,40.44a2.56,2.56,0,0,1-1.71.62,2.6,2.6,0,0,1-1.68-.7A3.31,3.31,0,0,1,71.62,39a5.27,5.27,0,0,1-.28-1.52c0-1,0-1.83,0-2.72l.07-2.66h0l1.45.46a15.25,15.25,0,0,0-2.32,9.56h0v.18a.94.94,0,0,1-1.87.11L67.63,35v-.07a.71.71,0,0,1,.61-.81A.7.7,0,0,1,69,34.66Z"/><path class="cls-1" d="M23.88,83.05A211.64,211.64,0,0,1,55.2,57.53,214.89,214.89,0,0,1,90.69,38.48s0,0,0,0,0,0,0,0A212.43,212.43,0,0,0,56,58.66,209.34,209.34,0,0,0,25.8,84.94a1.35,1.35,0,0,1-2-1.85Z"/><path class="cls-1" d="M29,87.78a43.75,43.75,0,0,0,23.5,5.11,43.3,43.3,0,0,0,22.45-8.22,42.43,42.43,0,0,0,16.7-42.34A1,1,0,0,1,93.55,42v0a44.28,44.28,0,0,1-2.73,24.44A43.89,43.89,0,0,1,70.21,88.67a50.43,50.43,0,0,1-5.67,2.4,43.19,43.19,0,0,1-12,2.34A44.12,44.12,0,0,1,29,87.81a0,0,0,0,1,0,0A0,0,0,0,1,29,87.78Z"/><path class="cls-1" d="M6.65,59.14a45.06,45.06,0,0,1,3.62-28.29,46.84,46.84,0,0,1,8.47-11.64,44.2,44.2,0,0,1,11.6-8.44,40.81,40.81,0,0,1,13.73-4,44,44,0,0,1,14.25.77,48.06,48.06,0,0,1,24.37,14,0,0,0,0,1,0,0h0A47.82,47.82,0,0,0,58.21,8a43.91,43.91,0,0,0-14.05-.52A39.83,39.83,0,0,0,30.8,11.66,44.93,44.93,0,0,0,11.6,31.49a43.3,43.3,0,0,0-3,27.26h0a1,1,0,0,1-.76,1.17,1,1,0,0,1-1.16-.76Z"/></svg>